<svg id="Capa_1" enable-background="new 0 0 512 512" height="512" viewBox="0 0 512 512" width="512" xmlns="http://www.w3.org/2000/svg"><g><path d="m141.493 193.957-3.419 10.257c-.972 2.917-23.813 72.384-23.813 154.526 0 52.739 9.344 95.932 17.182 122.879 5.204 17.888 21.843 30.381 40.463 30.381 22.71 0 41.204-17.782 42.102-40.482 1.172-29.609 4.235-72.546 12.172-108.947 9.318-42.735 21.514-57.962 29.82-57.962l21.333-110.652z" fill="#e1d3ce"/><path d="m373.925 204.213-3.418-10.257h-114.507v110.652c8.306 0 20.502 15.227 29.82 57.962 7.937 36.401 11 79.338 12.172 108.947.898 22.7 19.391 40.482 42.102 40.482 18.621 0 35.259-12.493 40.463-30.382 7.839-26.948 17.183-70.142 17.183-122.879-.001-82.14-22.842-151.608-23.815-154.525z" fill="#cdbfba"/><path d="m159.268 0c-14.83 0-30.192 1.232-45.271 4.288-22.237 4.508-38.334 23.406-39.145 45.957-1.348 37.51 3.563 106.429 51.58 146.531l3.657 3.072.391.317c14.497 11.294 32.602 17.515 50.979 17.515h74.541l42-111.014s-47.312-91.689-51.129-93.016c-17.66-6.137-50.997-13.649-87.603-13.65z" fill="#f7f0eb"/><path d="m437.148 50.245c-.811-22.551-16.908-41.45-39.145-45.957-15.076-3.055-30.446-4.288-45.273-4.288-26.887 0-52.005 4.052-70.447 8.636-12.095 3.007-21.319 12.143-26.283 14.614l-33 79.75 58 5-25 109.681h74.54c18.377 0 36.482-6.22 50.979-17.515l4.018-3.364c48.047-40.128 52.959-109.046 51.611-146.557z" fill="#efe2dd"/><path d="" fill="#fff"/><g fill="#cc2e43"><path d="m448 284.425h42.667v30h-42.667z"/><path d="m432.763 220.044h31.236v30h-31.236z" transform="matrix(.707 -.707 .707 .707 -34.872 385.902)"/><path d="m433.381 348.188h30v31.236h-30z" transform="matrix(.707 -.707 .707 .707 -125.922 423.609)"/></g><path d="m21.333 284.425h42.667v30h-42.667z" fill="#ec5569"/><path d="m48.619 219.426h30v31.236h-30z" fill="#ec5569" transform="matrix(.707 -.707 .707 .707 -147.566 113.826)"/><path d="m48.001 348.806h31.236v30h-31.236z" fill="#ec5569" transform="matrix(.707 -.707 .707 .707 -238.616 151.542)"/><g><path d="m197.804 119.306h58.196l10.667-12.64-10.667-17.36h-11.137l11.137-23.923 10.667-22.715-10.667-25.318c-2.204-1.097-5.264-2.347-9.027-3.659z" fill="#ec5569"/><path d="m229.25 204.265 26.75 13.374 10.667-36.306-10.667-30.567z" fill="#ec5569"/><g fill="#cc2e43"><path d="m282.434 8.602c-12.165 3.017-21.451 6.267-26.434 8.748v48.033z"/><path d="m256 89.306v30h15.73l-15.73 31.46v66.873l.083.042 64.188-128.375z"/></g></g></g></svg>