<svg id="Capa_1" enable-background="new 0 0 512 512" height="512" viewBox="0 0 512 512" width="512" xmlns="http://www.w3.org/2000/svg"><g><g><path d="m455.205 90.436-90.436-90.436-57.91 57.91-3.6 17.743-17.613 3.47-57.909 57.909 90.436 90.437z" fill="#e1d3ce"/><path d="m292.295 63.943h30v31.232h-30z" fill="#cdbfba" transform="matrix(.707 -.707 .707 .707 33.748 240.592)"/></g><g><path d="m489.139 113.774c0-11.834-4.608-22.961-12.977-31.33l-3.259-3.259-196.867 181.781-219.861 234.946 3.005 3.005c8.437 8.437 19.654 13.083 31.584 13.083 11.931 0 23.148-4.646 31.583-13.082l353.814-353.814c8.37-8.369 12.978-19.495 12.978-31.33z" fill="#e63950"/><path d="m419.799 26.081-167.137 167.138 19.79 19.788-249.591 249.591 33.314 33.314 416.727-416.727z" fill="#ec5569"/></g></g></svg>