<?xml version="1.0" encoding="iso-8859-1"?>
<!-- Generator: Adobe Illustrator 19.0.0, SVG Export Plug-In . SVG Version: 6.00 Build 0)  -->
<svg version="1.1" id="Capa_1" xmlns="http://www.w3.org/2000/svg" xmlns:xlink="http://www.w3.org/1999/xlink" x="0px" y="0px"
	 viewBox="0 0 512 512" style="enable-background:new 0 0 512 512;" xml:space="preserve">
<g>
	<g>
		<path d="M445.078,0H66.922c-8.421,0-15.248,6.827-15.248,15.248v481.503c0,8.421,6.827,15.248,15.248,15.248h378.157
			c8.421,0,15.248-6.827,15.248-15.248V15.248C460.327,6.827,453.5,0,445.078,0z M429.83,481.503H82.17V30.497h347.66V481.503z"/>
	</g>
</g>
<g>
	<g>
		<path d="M380.358,207.802h-65.906c-8.421,0-15.248,6.827-15.248,15.248v65.906c0,8.421,6.827,15.248,15.248,15.248h65.906
			c8.421,0,15.248-6.827,15.248-15.248v-65.906C395.606,214.629,388.779,207.802,380.358,207.802z M365.109,273.708H329.7v-35.41
			h35.409V273.708z"/>
	</g>
</g>
<g>
	<g>
		<path d="M380.358,327.755h-65.906c-8.421,0-15.248,6.827-15.248,15.248v65.906c0,8.421,6.827,15.248,15.248,15.248h65.906
			c8.421,0,15.248-6.827,15.248-15.248v-65.906C395.606,334.582,388.779,327.755,380.358,327.755z M365.109,393.661H329.7v-35.41
			h35.409V393.661z"/>
	</g>
</g>
<g>
	<g>
		<path d="M243.293,360.708H140.622c-8.421,0-15.248,6.827-15.248,15.248c0,8.421,6.827,15.248,15.248,15.248h102.672
			c8.421,0,15.248-6.827,15.248-15.248C258.541,367.535,251.714,360.708,243.293,360.708z"/>
	</g>
</g>
<g>
	<g>
		<path d="M243.293,240.755H140.622c-8.421,0-15.248,6.827-15.248,15.248c0,8.421,6.827,15.248,15.248,15.248h102.672
			c8.421,0,15.248-6.827,15.248-15.248C258.541,247.582,251.714,240.755,243.293,240.755z"/>
	</g>
</g>
<g>
	<g>
		<path d="M243.293,120.802H140.622c-8.421,0-15.248,6.827-15.248,15.248c0,8.421,6.827,15.248,15.248,15.248h102.672
			c8.421,0,15.248-6.827,15.248-15.248C258.541,127.629,251.714,120.802,243.293,120.802z"/>
	</g>
</g>
<g>
	<g>
		<path d="M368.967,136.05l22.171-22.171c5.955-5.955,5.955-15.609,0-21.564c-5.954-5.955-15.609-5.955-21.564,0l-22.171,22.171
			l-22.171-22.171c-5.954-5.955-15.609-5.955-21.564,0s-5.955,15.609,0,21.564l22.171,22.171l-22.171,22.171
			c-5.954,5.955-5.954,15.609,0.002,21.564c2.977,2.977,6.88,4.467,10.781,4.467s7.805-1.488,10.782-4.467l22.171-22.171
			l22.171,22.171c2.977,2.977,6.88,4.467,10.781,4.467c3.902,0,7.805-1.488,10.782-4.467c5.955-5.955,5.955-15.609,0-21.564
			L368.967,136.05z"/>
	</g>
</g>
<g>
</g>
<g>
</g>
<g>
</g>
<g>
</g>
<g>
</g>
<g>
</g>
<g>
</g>
<g>
</g>
<g>
</g>
<g>
</g>
<g>
</g>
<g>
</g>
<g>
</g>
<g>
</g>
<g>
</g>
</svg>
