<?xml version="1.0" encoding="iso-8859-1"?>
<!-- Generator: Adobe Illustrator 19.0.0, SVG Export Plug-In . SVG Version: 6.00 Build 0)  -->
<svg version="1.1" id="Capa_1" xmlns="http://www.w3.org/2000/svg" xmlns:xlink="http://www.w3.org/1999/xlink" x="0px" y="0px"
	 viewBox="0 0 512 512" style="enable-background:new 0 0 512 512;" xml:space="preserve">
<g>
	<g>
		<path d="M496.941,357.15h-8.322V113.909c0-32.78-26.669-59.448-59.449-59.448H82.83c-32.78,0-59.449,26.669-59.449,59.448v243.24
			h-8.322C6.742,357.149,0,363.891,0,372.207v28.441c0,31.37,25.521,56.891,56.891,56.891h398.217
			c31.37,0,56.891-25.521,56.891-56.891v-28.441C512,363.892,505.258,357.15,496.941,357.15z M53.498,113.909
			c0-16.173,13.158-29.331,29.332-29.331H429.17c16.173,0,29.332,13.158,29.332,29.331v243.24H53.498V113.909z M481.883,400.649
			c0,14.763-12.011,26.774-26.774,26.774H56.891c-14.763,0-26.774-12.011-26.774-26.774v-13.382h451.766V400.649z"/>
	</g>
</g>
<g>
	<g>
		<path d="M259.023,250.331c-7.877,0-15.423,6.926-15.059,15.059c0.365,8.159,6.617,15.059,15.059,15.059
			c7.877,0,15.423-6.926,15.059-15.059C273.716,257.231,267.465,250.331,259.023,250.331z"/>
	</g>
</g>
<g>
	<g>
		<path d="M259.022,153.741c-21.456,0-38.911,17.456-38.911,38.911c0,8.316,6.742,15.059,15.059,15.059s15.059-6.742,15.059-15.059
			c0-4.849,3.945-8.794,8.794-8.794s8.793,3.945,8.793,8.794s-3.944,8.793-8.793,8.793c-8.316,0-15.059,6.742-15.059,15.059v13.133
			c0,8.316,6.742,15.059,15.059,15.059s15.059-6.742,15.059-15.059v-1.106c13.999-5.898,23.852-19.76,23.852-35.879
			C297.932,171.197,280.478,153.741,259.022,153.741z"/>
	</g>
</g>
<g>
	<g>
		<path d="M337.619,138.24c-21.657-21.658-50.429-33.326-81.11-32.831c-60.928,0.966-110.421,51.346-110.325,112.303
			c0.023,15.916,3.469,31.741,10.008,46.165l-13.346,38.839c-2.986,8.686-0.805,18.116,5.69,24.611
			c4.572,4.571,10.596,7.005,16.792,7.004c2.607,0,5.245-0.431,7.816-1.315l38.839-13.346c14.424,6.538,30.251,9.983,46.164,10.008
			c0.06,0,0.114,0,0.175,0c60.879-0.002,111.165-49.459,112.13-110.328C370.937,188.702,359.276,159.896,337.619,138.24z
			 M258.321,299.56c-0.04,0-0.086,0-0.127,0c-13.481-0.021-26.319-3.208-38.16-9.471c-3.679-1.947-8-2.283-11.936-0.931
			l-32.6,11.203l11.202-32.6c1.353-3.936,1.016-8.257-0.931-11.935c-6.263-11.839-9.45-24.678-9.471-38.16
			c-0.069-44.588,36.126-81.437,80.687-82.144c0.45-0.007,0.897-0.011,1.346-0.011c21.918,0,42.467,8.501,57.99,24.023
			c15.842,15.841,24.37,36.914,24.016,59.337C339.633,263.392,302.855,299.56,258.321,299.56z"/>
	</g>
</g>
<g>
</g>
<g>
</g>
<g>
</g>
<g>
</g>
<g>
</g>
<g>
</g>
<g>
</g>
<g>
</g>
<g>
</g>
<g>
</g>
<g>
</g>
<g>
</g>
<g>
</g>
<g>
</g>
<g>
</g>
</svg>
